<svg id="Capa_1" xmlns="http://www.w3.org/2000/svg" width="475.084" height="475.084" viewBox="0 0 475.084 475.084"><path d="M436.244 146.752c5.14-15.422 7.713-31.41 7.713-47.967 0-22.08-4.86-42.828-14.564-62.242-20.362 0-38.35 3.715-53.96 11.136-15.605 7.422-33.4 18.937-53.38 34.544-25.122-6.09-51.777-9.135-79.94-9.135-30.838 0-60.246 3.332-88.224 9.993-20.365-15.99-38.352-27.74-53.96-35.26-15.608-7.52-33.69-11.28-54.247-11.28-9.707 19.415-14.56 40.164-14.56 62.243 0 16.75 2.568 32.93 7.708 48.535C12.943 177.588 0 215.273 0 260.384c0 39.595 5.898 71.092 17.7 94.507 6.284 12.367 14.466 23.312 24.555 32.832 10.085 9.514 21.6 17.228 34.545 23.13 12.946 5.896 25.98 10.8 39.116 14.7 13.134 3.9 27.646 6.757 43.54 8.558 15.893 1.816 29.93 3.004 42.11 3.58 12.182.563 25.694.852 40.545.852 17.51 0 33.397-.432 47.68-1.283 14.276-.856 30.593-2.954 48.963-6.277 18.367-3.333 34.547-7.857 48.54-13.565 13.99-5.708 27.412-13.895 40.26-24.55 12.846-10.664 22.883-23.32 30.12-37.977 11.604-23.602 17.412-55.106 17.412-94.506-.007-45.302-12.95-83.178-38.84-113.632zm-34.25 207.703c-6.09 12.47-13.8 22.265-23.126 29.41-9.33 7.14-20.938 12.847-34.83 17.135-13.9 4.28-27.218 7.087-39.972 8.415-12.758 1.334-26.933 1.998-42.545 1.998h-47.965c-15.607 0-29.79-.664-42.54-1.998-12.753-1.328-26.076-4.134-39.972-8.415-13.89-4.288-25.5-9.996-34.83-17.135-9.328-7.146-17.036-16.94-23.127-29.41-6.09-12.47-9.136-27.076-9.136-43.824 0-22.846 6.567-42.263 19.702-58.244 13.134-15.99 30.93-23.982 53.387-23.982 8.187 0 26.745 1.997 55.676 5.995 13.513 2.092 28.456 3.14 44.823 3.14 16.37 0 31.312-1.045 44.823-3.14 29.317-4 47.87-5.996 55.678-5.996 22.458 0 40.253 7.996 53.387 23.982 13.135 15.988 19.698 35.398 19.698 58.245 0 16.752-3.046 31.365-9.13 43.825z"/><path d="M166.875 265.52c-5.806-6.475-12.703-9.712-20.7-9.712s-14.895 3.24-20.7 9.712c-5.802 6.468-9.897 13.703-12.275 21.69-2.383 8-3.57 15.803-3.57 23.42 0 7.61 1.19 15.414 3.57 23.415 2.375 7.99 6.468 15.222 12.275 21.69 5.808 6.474 12.703 9.712 20.7 9.712s14.897-3.244 20.7-9.713c5.804-6.468 9.897-13.698 12.275-21.69 2.38-8 3.57-15.803 3.57-23.413 0-7.61-1.187-15.42-3.57-23.42-2.38-7.984-6.468-15.216-12.275-21.69zM349.6 265.52c-5.803-6.475-12.702-9.712-20.696-9.712-7.99 0-14.894 3.24-20.7 9.712-5.805 6.468-9.897 13.703-12.272 21.69-2.385 8-3.576 15.803-3.576 23.42 0 7.61 1.19 15.414 3.576 23.415 2.375 7.99 6.468 15.222 12.27 21.69 5.81 6.474 12.71 9.712 20.702 9.712 7.994 0 14.894-3.244 20.697-9.713 5.802-6.468 9.897-13.698 12.28-21.69 2.378-8 3.568-15.803 3.568-23.413 0-7.61-1.19-15.42-3.57-23.42-2.38-7.984-6.476-15.216-12.277-21.69z"/></svg>