<svg xmlns="http://www.w3.org/2000/svg" id="Capa_1" width="512" height="512" viewBox="0 0 401.998 401.998"><g fill="#FFF"><path d="M164.454 91.363h73.098c4.945 0 9.226-1.807 12.847-5.424 3.61-3.615 5.42-7.9 5.42-12.848V18.274c0-4.948-1.81-9.23-5.428-12.85C246.777 1.812 242.49 0 237.544 0h-73.09c-4.947 0-9.23 1.812-12.848 5.424-3.615 3.617-5.424 7.902-5.424 12.85v54.818c0 4.95 1.81 9.233 5.424 12.847 3.618 3.616 7.9 5.423 12.848 5.423zM286.936 334.33c-3.613-3.616-7.897-5.426-12.847-5.426h-18.275V164.452c0-4.947-1.807-9.23-5.42-12.845-3.62-3.617-7.905-5.426-12.848-5.426H127.912c-4.95 0-9.23 1.81-12.847 5.427-3.618 3.616-5.424 7.898-5.424 12.845V201c0 4.945 1.808 9.23 5.425 12.844 3.615 3.62 7.898 5.428 12.847 5.428h18.274v109.633h-18.274c-4.95 0-9.23 1.81-12.847 5.427-3.618 3.614-5.424 7.898-5.424 12.847v36.545c0 4.948 1.808 9.232 5.425 12.854 3.615 3.61 7.898 5.42 12.847 5.42H274.09c4.948 0 9.232-1.81 12.846-5.42 3.614-3.622 5.42-7.906 5.42-12.855V347.18c0-4.95-1.796-9.235-5.42-12.85z"/></g></svg>