<svg id="Capa_1" xmlns="http://www.w3.org/2000/svg" width="547.597" height="547.597" viewBox="0 0 547.597 547.597"><path d="M140.81 475.11h.024l189.91-.268c8.434-.013 15.3-6.886 15.3-15.318v-21.298c0-8.428-6.854-15.288-15.3-15.288l-189.91.264c-8.433.012-15.3 6.885-15.3 15.318v21.31c0 8.427 6.855 15.28 15.276 15.28z"/><path d="M58.667 517.854c.073 29.26.073 29.45 3.072 29.45h.054l10.612.293h.086s85.814 0 171.63-.036c42.913-.018 85.82-.05 118-.09 16.09-.02 29.504-.044 38.886-.075 17.803-.055 17.803-.055 17.803-3.072l.3-10.697V333.3c0-8.435-6.865-15.3-15.3-15.3h-11.908c-8.434 0-15.3 6.865-15.3 15.3v162.92c0 5.062-4.12 9.18-9.18 9.18H110.51c-5.06 0-9.18-4.118-9.18-9.18V333.3c0-8.435-6.867-15.3-15.3-15.3H73.82c-8.433 0-15.3 6.86-15.3 15.3 0 23.34.012 76.083.055 122.98.02 23.447.05 45.442.092 61.574z"/><path d="M142.322 397.4l189.402 17.466c.478.043.948.062 1.413.062 7.956 0 14.468-5.985 15.16-13.917l1.83-21.095c.728-8.396-5.51-15.85-13.9-16.628l-189.1-17.46c-8.594-.796-15.87 5.44-16.654 13.824l-1.97 21.11c-.38 4.068.844 8.04 3.452 11.18a15.19 15.19 0 0 0 10.367 5.46zM437.636 208.85a15.253 15.253 0 0 0 17.694 12.442l21.065-3.678c8.31-1.45 13.898-9.395 12.454-17.706l-32.505-187.23C454.925 4.47 447.135-1.24 438.653.23l-21.065 3.678c-8.31 1.45-13.898 9.395-12.454 17.705l32.502 187.236zM190.333 194.375l163.6 96.708a15.28 15.28 0 0 0 7.778 2.136c5.394 0 10.448-2.877 13.184-7.51l10.876-18.36c2.08-3.52 2.674-7.63 1.658-11.59a15.18 15.18 0 0 0-7.032-9.36l-163.6-96.713c-7.014-4.15-16.836-1.597-20.967 5.374l-10.87 18.36a15.2 15.2 0 0 0-1.658 11.592 15.21 15.21 0 0 0 7.03 9.363zM387.525 240.5a15.276 15.276 0 0 0 12.626 6.66c3.092 0 6.078-.924 8.636-2.68l17.405-11.935c6.954-4.768 8.753-14.314 4.016-21.292L323.29 54.103c-4.584-6.73-14.498-8.622-21.236-3.983l-17.737 12.21c-6.945 4.78-8.727 14.327-3.97 21.29L387.524 240.5zM154.482 302.32l183.465 49.155a15.28 15.28 0 0 0 3.966.526c6.903 0 12.98-4.67 14.762-11.346l5.508-20.624c2.18-8.152-2.68-16.555-10.826-18.74l-183.465-49.162c-8.017-2.148-16.604 2.852-18.728 10.826l-5.508 20.63c-2.18 8.142 2.68 16.55 10.826 18.735z"/></svg>